<svg width="200" height="200" viewBox="0 0 200 200" fill="none" xmlns="http://www.w3.org/2000/svg">
<rect width="200" height="200" rx="15" fill="url(#paint0_linear_4_64)"/>
<g filter="url(#filter0_d_4_64)">
<path d="M25.6372 155V146.057H36.2061C38.916 146.057 40.542 145.455 41.084 144.25C41.626 143.046 41.897 141.239 41.897 138.831V55.5444C41.897 52.4731 41.6862 50.3654 41.2646 49.2212C40.8431 48.0168 39.1569 47.4146 36.2061 47.4146H26.1792V38.4717H120.305V68.2812H110.278V64.5776C110.278 59.2782 110.037 55.5444 109.556 53.3765C109.134 51.2085 108.381 49.9137 107.297 49.4922C106.274 49.0104 104.858 48.7695 103.052 48.7695H58.4277V90.5029H84.353C85.8586 90.5029 87.1232 90.5029 88.147 90.5029C89.1707 90.4427 89.9837 89.9007 90.5859 88.877C91.1882 87.8532 91.5194 85.8659 91.5796 82.915H97.9932V107.395H91.5796C91.5194 103.661 90.887 101.463 89.6826 100.801C88.5384 100.138 86.8221 99.8071 84.5337 99.8071H58.4277V140.005C58.4277 143.016 59.3009 144.792 61.0474 145.334C62.7938 145.816 65.835 146.057 70.1709 146.057H75.0488V155C71.3151 155 67.6416 155 64.0283 155C60.4753 154.94 56.0791 154.88 50.8398 154.819C45.3597 154.819 40.7829 154.849 37.1094 154.91C33.4961 154.97 29.672 155 25.6372 155ZM162.609 113.78V116.951H159.438V113.78H162.609ZM165.779 113.78V116.951H162.609V113.78H165.779ZM168.95 113.78V116.951H165.779V113.78H168.95ZM172.121 113.78V116.951H168.95V113.78H172.121ZM175.292 113.78V116.951H172.121V113.78H175.292ZM175.292 110.61V113.78H172.121V110.61H175.292ZM175.292 107.439V110.61H172.121V107.439H175.292ZM172.121 107.439V110.61H168.95V107.439H172.121ZM168.95 107.439V110.61H165.779V107.439H168.95ZM165.779 107.439V110.61H162.609V107.439H165.779ZM165.779 110.61V113.78H162.609V110.61H165.779ZM162.609 110.61V113.78H159.438V110.61H162.609ZM168.95 110.61V113.78H165.779V110.61H168.95ZM172.121 110.61V113.78H168.95V110.61H172.121ZM162.609 107.439V110.61H159.438V107.439H162.609ZM159.438 107.439V110.61H156.267V107.439H159.438ZM159.438 104.268V107.439H156.267V104.268H159.438ZM162.609 104.268V107.439H159.438V104.268H162.609ZM165.779 104.268V107.439H162.609V104.268H165.779ZM168.95 104.268V107.439H165.779V104.268H168.95ZM172.121 104.268V107.439H168.95V104.268H172.121ZM172.121 101.098V104.268H168.95V101.098H172.121ZM168.95 101.098V104.268H165.779V101.098H168.95ZM165.779 101.098V104.268H162.609V101.098H165.779ZM162.609 101.098V104.268H159.438V101.098H162.609ZM159.438 101.098V104.268H156.267V101.098H159.438ZM165.779 97.9268V101.098H162.609V97.9268H165.779ZM168.95 97.9268V101.098H165.779V97.9268H168.95ZM162.609 97.9268V101.098H159.438V97.9268H162.609ZM162.609 94.7561V97.9268H159.438V94.7561H162.609ZM159.438 94.7561V97.9268H156.267V94.7561H159.438ZM159.438 97.9268V101.098H156.267V97.9268H159.438ZM156.267 97.9268V101.098H153.096V97.9268H156.267ZM156.267 94.7561V97.9268H153.096V94.7561H156.267ZM156.267 101.098V104.268H153.096V101.098H156.267ZM153.096 101.098V104.268H149.926V101.098H153.096ZM153.096 104.268V107.439H149.926V104.268H153.096ZM156.267 104.268V107.439H153.096V104.268H156.267ZM149.926 104.268V107.439H146.755V104.268H149.926ZM149.926 101.098V104.268H146.755V101.098H149.926ZM149.926 97.9268V101.098H146.755V97.9268H149.926ZM149.926 94.7561V97.9268H146.755V94.7561H149.926ZM153.096 94.7561V97.9268H149.926V94.7561H153.096ZM153.096 97.9268V101.098H149.926V97.9268H153.096ZM146.755 94.7561V97.9268H143.584V94.7561H146.755ZM143.584 94.7561V97.9268H140.414V94.7561H143.584ZM140.414 94.7561V97.9268H137.243V94.7561H140.414ZM140.414 97.9268V101.098H137.243V97.9268H140.414ZM140.414 101.098V104.268H137.243V101.098H140.414ZM140.414 104.268V107.439H137.243V104.268H140.414ZM143.584 104.268V107.439H140.414V104.268H143.584ZM146.755 104.268V107.439H143.584V104.268H146.755ZM146.755 101.098V104.268H143.584V101.098H146.755ZM146.755 97.9268V101.098H143.584V97.9268H146.755ZM143.584 97.9268V101.098H140.414V97.9268H143.584ZM143.584 101.098V104.268H140.414V101.098H143.584ZM137.243 101.098V104.268H134.072V101.098H137.243ZM137.243 97.9268V101.098H134.072V97.9268H137.243ZM134.072 97.9268V101.098H130.901V97.9268H134.072ZM134.072 101.098V104.268H130.901V101.098H134.072ZM130.901 101.098V104.268H127.731V101.098H130.901ZM130.901 104.268V107.439H127.731V104.268H130.901ZM130.901 107.439V110.61H127.731V107.439H130.901ZM134.072 107.439V110.61H130.901V107.439H134.072ZM134.072 104.268V107.439H130.901V104.268H134.072ZM137.243 104.268V107.439H134.072V104.268H137.243ZM137.243 107.439V110.61H134.072V107.439H137.243ZM140.414 107.439V110.61H137.243V107.439H140.414ZM143.584 107.439V110.61H140.414V107.439H143.584ZM127.731 107.439V110.61H124.56V107.439H127.731ZM127.731 110.61V113.78H124.56V110.61H127.731ZM127.731 113.78V116.951H124.56V113.78H127.731ZM127.731 116.951V120.122H124.56V116.951H127.731ZM127.731 120.122V123.293H124.56V120.122H127.731ZM127.731 123.293V126.463H124.56V123.293H127.731ZM127.731 126.463V129.634H124.56V126.463H127.731ZM127.731 129.634V132.805H124.56V129.634H127.731ZM127.731 132.805V135.976H124.56V132.805H127.731ZM127.731 135.976V139.146H124.56V135.976H127.731ZM130.901 135.976V139.146H127.731V135.976H130.901ZM130.901 139.146V142.317H127.731V139.146H130.901ZM127.731 139.146V142.317H124.56V139.146H127.731ZM134.072 139.146V142.317H130.901V139.146H134.072ZM137.243 139.146V142.317H134.072V139.146H137.243ZM140.414 139.146V142.317H137.243V139.146H140.414ZM143.584 139.146V142.317H140.414V139.146H143.584ZM140.414 135.976V139.146H137.243V135.976H140.414ZM140.414 132.805V135.976H137.243V132.805H140.414ZM140.414 129.634V132.805H137.243V129.634H140.414ZM140.414 126.463V129.634H137.243V126.463H140.414ZM140.414 123.293V126.463H137.243V123.293H140.414ZM140.414 120.122V123.293H137.243V120.122H140.414ZM140.414 116.951V120.122H137.243V116.951H140.414ZM140.414 113.78V116.951H137.243V113.78H140.414ZM140.414 110.61V113.78H137.243V110.61H140.414ZM137.243 110.61V113.78H134.072V110.61H137.243ZM134.072 110.61V113.78H130.901V110.61H134.072ZM130.901 110.61V113.78H127.731V110.61H130.901ZM130.901 113.78V116.951H127.731V113.78H130.901ZM130.901 116.951V120.122H127.731V116.951H130.901ZM130.901 120.122V123.293H127.731V120.122H130.901ZM130.901 123.293V126.463H127.731V123.293H130.901ZM130.901 126.463V129.634H127.731V126.463H130.901ZM130.901 129.634V132.805H127.731V129.634H130.901ZM130.901 132.805V135.976H127.731V132.805H130.901ZM134.072 135.976V139.146H130.901V135.976H134.072ZM137.243 135.976V139.146H134.072V135.976H137.243ZM137.243 132.805V135.976H134.072V132.805H137.243ZM137.243 129.634V132.805H134.072V129.634H137.243ZM137.243 126.463V129.634H134.072V126.463H137.243ZM137.243 123.293V126.463H134.072V123.293H137.243ZM134.072 123.293V126.463H130.901V123.293H134.072ZM134.072 120.122V123.293H130.901V120.122H134.072ZM134.072 116.951V120.122H130.901V116.951H134.072ZM134.072 113.78V116.951H130.901V113.78H134.072ZM137.243 113.78V116.951H134.072V113.78H137.243ZM137.243 116.951V120.122H134.072V116.951H137.243ZM137.243 120.122V123.293H134.072V120.122H137.243ZM134.072 129.634V132.805H130.901V129.634H134.072ZM134.072 132.805V135.976H130.901V132.805H134.072ZM134.072 126.463V129.634H130.901V126.463H134.072ZM162.609 132.805V135.976H159.438V132.805H162.609ZM162.609 135.976V139.146H159.438V135.976H162.609ZM165.779 135.976V139.146H162.609V135.976H165.779ZM168.95 135.976V139.146H165.779V135.976H168.95ZM172.121 135.976V139.146H168.95V135.976H172.121ZM175.292 135.976V139.146H172.121V135.976H175.292ZM175.292 132.805V135.976H172.121V132.805H175.292ZM172.121 132.805V135.976H168.95V132.805H172.121ZM168.95 132.805V135.976H165.779V132.805H168.95ZM165.779 132.805V135.976H162.609V132.805H165.779ZM175.292 139.146V142.317H172.121V139.146H175.292ZM172.121 139.146V142.317H168.95V139.146H172.121ZM168.95 139.146V142.317H165.779V139.146H168.95ZM165.779 139.146V142.317H162.609V139.146H165.779ZM162.609 139.146V142.317H159.438V139.146H162.609ZM159.438 139.146V142.317H156.267V139.146H159.438ZM159.438 142.317V145.488H156.267V142.317H159.438ZM162.609 142.317V145.488H159.438V142.317H162.609ZM165.779 142.317V145.488H162.609V142.317H165.779ZM168.95 142.317V145.488H165.779V142.317H168.95ZM168.95 145.488V148.659H165.779V145.488H168.95ZM172.121 145.488V148.659H168.95V145.488H172.121ZM172.121 142.317V145.488H168.95V142.317H172.121ZM168.95 148.659V151.829H165.779V148.659H168.95ZM165.779 148.659V151.829H162.609V148.659H165.779ZM165.779 145.488V148.659H162.609V145.488H165.779ZM162.609 145.488V148.659H159.438V145.488H162.609ZM162.609 148.659V151.829H159.438V148.659H162.609ZM162.609 151.829V155H159.438V151.829H162.609ZM159.438 151.829V155H156.267V151.829H159.438ZM156.267 151.829V155H153.096V151.829H156.267ZM153.096 151.829V155H149.926V151.829H153.096ZM149.926 151.829V155H146.755V151.829H149.926ZM146.755 151.829V155H143.584V151.829H146.755ZM143.584 151.829V155H140.414V151.829H143.584ZM140.414 151.829V155H137.243V151.829H140.414ZM143.584 148.659V151.829H140.414V148.659H143.584ZM146.755 148.659V151.829H143.584V148.659H146.755ZM149.926 148.659V151.829H146.755V148.659H149.926ZM153.096 148.659V151.829H149.926V148.659H153.096ZM156.267 148.659V151.829H153.096V148.659H156.267ZM159.438 148.659V151.829H156.267V148.659H159.438ZM159.438 145.488V148.659H156.267V145.488H159.438ZM156.267 145.488V148.659H153.096V145.488H156.267ZM153.096 145.488V148.659H149.926V145.488H153.096ZM149.926 145.488V148.659H146.755V145.488H149.926ZM146.755 145.488V148.659H143.584V145.488H146.755ZM143.584 145.488V148.659H140.414V145.488H143.584ZM140.414 148.659V151.829H137.243V148.659H140.414ZM137.243 148.659V151.829H134.072V148.659H137.243ZM134.072 148.659V151.829H130.901V148.659H134.072ZM134.072 145.488V148.659H130.901V145.488H134.072ZM130.901 145.488V148.659H127.731V145.488H130.901ZM130.901 142.317V145.488H127.731V142.317H130.901ZM134.072 142.317V145.488H130.901V142.317H134.072ZM137.243 142.317V145.488H134.072V142.317H137.243ZM140.414 142.317V145.488H137.243V142.317H140.414ZM143.584 142.317V145.488H140.414V142.317H143.584ZM146.755 142.317V145.488H143.584V142.317H146.755ZM149.926 142.317V145.488H146.755V142.317H149.926ZM153.096 142.317V145.488H149.926V142.317H153.096ZM156.267 142.317V145.488H153.096V142.317H156.267ZM140.414 145.488V148.659H137.243V145.488H140.414ZM137.243 145.488V148.659H134.072V145.488H137.243Z" fill="url(#paint1_linear_4_64)"/>
</g>
<defs>
<filter id="filter0_d_4_64" x="21.6372" y="38.4717" width="157.654" height="124.528" filterUnits="userSpaceOnUse" color-interpolation-filters="sRGB">
<feFlood flood-opacity="0" result="BackgroundImageFix"/>
<feColorMatrix in="SourceAlpha" type="matrix" values="0 0 0 0 0 0 0 0 0 0 0 0 0 0 0 0 0 0 127 0" result="hardAlpha"/>
<feOffset dy="4"/>
<feGaussianBlur stdDeviation="2"/>
<feComposite in2="hardAlpha" operator="out"/>
<feColorMatrix type="matrix" values="0 0 0 0 0 0 0 0 0 0 0 0 0 0 0 0 0 0 0.25 0"/>
<feBlend mode="normal" in2="BackgroundImageFix" result="effect1_dropShadow_4_64"/>
<feBlend mode="normal" in="SourceGraphic" in2="effect1_dropShadow_4_64" result="shape"/>
</filter>
<linearGradient id="paint0_linear_4_64" x1="264" y1="-68.5" x2="6" y2="193.5" gradientUnits="userSpaceOnUse">
<stop stop-color="#D467CD"/>
<stop offset="1" stop-color="#4698B5"/>
</linearGradient>
<linearGradient id="paint1_linear_4_64" x1="195" y1="159" x2="48.3788" y2="-28.8569" gradientUnits="userSpaceOnUse">
<stop stop-color="#E59C3B"/>
<stop offset="1" stop-color="#F53311"/>
</linearGradient>
</defs>
</svg>
